<?xml version="1.0" encoding="UTF-8"?><svg id="Calque_2" xmlns="http://www.w3.org/2000/svg" viewBox="0 0 259 172.03"><defs><style>.cls-1{fill:#8a2bff;}.cls-1,.cls-2{stroke:#fff;stroke-miterlimit:10;}.cls-2{fill:#fff;}</style></defs><g id="Calque_1-2"><g><path class="cls-1" d="m216.72,115.5H87.06l-44.56,35,13.78-35c-22.98,0-41.78-18.8-41.78-41.78v-31.44C14.5,19.3,33.3.5,56.28.5h160.44c22.98,0,41.78,18.8,41.78,41.78v31.44c0,22.98-18.8,41.78-41.78,41.78Z"/><path class="cls-2" d="m202.72,135.5H73.06l-44.56,35,13.78-35C19.3,135.5.5,116.7.5,93.72v-31.44C.5,39.3,19.3,20.5,42.28,20.5h160.44c22.98,0,41.78,18.8,41.78,41.78v31.44c0,22.98-18.8,41.78-41.78,41.78Z"/></g></g></svg>